<svg width="220" height="64" viewBox="0 0 220 64" fill="none" xmlns="http://www.w3.org/2000/svg">
<path d="M59.0769 15.36H49.2308V5.12C49.2308 3.76209 48.7121 2.4598 47.7888 1.49961C46.8656 0.539427 45.6134 0 44.3077 0H4.92308C3.6174 0 2.36519 0.539427 1.44194 1.49961C0.51868 2.4598 0 3.76209 0 5.12V46.08C0.00144527 46.5616 0.133499 47.0331 0.380991 47.4401C0.628483 47.8472 0.981372 48.1734 1.39912 48.3813C1.81687 48.5892 2.28252 48.6703 2.7426 48.6153C3.20267 48.5603 3.63849 48.3714 4 48.0704L14.7692 39.04V48.64C14.7692 49.9979 15.2879 51.3002 16.2112 52.2604C17.1344 53.2206 18.3866 53.76 19.6923 53.76H48.4892L60 63.4304C60.4356 63.7968 60.9783 63.9977 61.5385 64C62.1913 64 62.8174 63.7303 63.279 63.2502C63.7407 62.7701 64 62.119 64 61.44V20.48C64 19.1221 63.4813 17.8198 62.5581 16.8596C61.6348 15.8994 60.3826 15.36 59.0769 15.36ZM13.0923 33.8496L4.92308 40.72V5.12H44.3077V33.28H14.64C14.0766 33.2801 13.5303 33.4811 13.0923 33.8496ZM59.0769 56.08L50.9077 49.2096C50.4721 48.8432 49.9294 48.6423 49.3692 48.64H19.6923V38.4H44.3077C45.6134 38.4 46.8656 37.8606 47.7888 36.9004C48.7121 35.9402 49.2308 34.6379 49.2308 33.28V20.48H59.0769V56.08Z" fill="url(#paint0_linear_11227_685)"/>
<path d="M81.2614 47L74.6023 23.7273H79.9773L83.8295 39.8977H84.0227L88.2727 23.7273H92.875L97.1136 39.9318H97.3182L101.17 23.7273H106.545L99.8864 47H95.0909L90.6591 31.7841H90.4773L86.0568 47H81.2614ZM115.168 47.3409C113.372 47.3409 111.827 46.9773 110.531 46.25C109.243 45.5152 108.251 44.4773 107.554 43.1364C106.857 41.7879 106.509 40.1932 106.509 38.3523C106.509 36.5568 106.857 34.9811 107.554 33.625C108.251 32.2689 109.232 31.2121 110.497 30.4545C111.77 29.697 113.262 29.3182 114.974 29.3182C116.126 29.3182 117.198 29.5038 118.19 29.875C119.19 30.2386 120.062 30.7879 120.804 31.5227C121.554 32.2576 122.137 33.1818 122.554 34.2955C122.971 35.4015 123.179 36.697 123.179 38.1818V39.5114H108.44V36.5114H118.622C118.622 35.8144 118.471 35.197 118.168 34.6591C117.865 34.1212 117.444 33.7008 116.906 33.3977C116.376 33.0871 115.759 32.9318 115.054 32.9318C114.319 32.9318 113.668 33.1023 113.099 33.4432C112.539 33.7765 112.099 34.2273 111.781 34.7955C111.463 35.3561 111.3 35.9811 111.293 36.6705V39.5227C111.293 40.3864 111.452 41.1326 111.77 41.7614C112.096 42.3902 112.554 42.875 113.145 43.2159C113.736 43.5568 114.437 43.7273 115.247 43.7273C115.785 43.7273 116.277 43.6515 116.724 43.5C117.171 43.3485 117.554 43.1212 117.872 42.8182C118.19 42.5152 118.433 42.1439 118.599 41.7045L123.077 42C122.849 43.0758 122.384 44.0152 121.679 44.8182C120.982 45.6136 120.08 46.2348 118.974 46.6818C117.876 47.1212 116.607 47.3409 115.168 47.3409ZM126.429 47V23.7273H131.27V32.4773H131.418C131.63 32.0076 131.937 31.5303 132.338 31.0455C132.747 30.553 133.277 30.1439 133.929 29.8182C134.588 29.4848 135.406 29.3182 136.384 29.3182C137.656 29.3182 138.83 29.6515 139.906 30.3182C140.982 30.9773 141.842 31.9735 142.486 33.3068C143.13 34.6326 143.452 36.2955 143.452 38.2955C143.452 40.2424 143.137 41.8864 142.509 43.2273C141.887 44.5606 141.039 45.572 139.963 46.2614C138.895 46.9432 137.698 47.2841 136.372 47.2841C135.433 47.2841 134.634 47.1288 133.974 46.8182C133.323 46.5076 132.789 46.1174 132.372 45.6477C131.955 45.1705 131.637 44.6894 131.418 44.2045H131.202V47H126.429ZM131.168 38.2727C131.168 39.3106 131.312 40.2159 131.599 40.9886C131.887 41.7614 132.304 42.3636 132.849 42.7955C133.395 43.2197 134.058 43.4318 134.838 43.4318C135.626 43.4318 136.293 43.2159 136.838 42.7841C137.384 42.3447 137.796 41.7386 138.077 40.9659C138.365 40.1856 138.509 39.2879 138.509 38.2727C138.509 37.2652 138.368 36.3788 138.088 35.6136C137.808 34.8485 137.395 34.25 136.849 33.8182C136.304 33.3864 135.634 33.1705 134.838 33.1705C134.05 33.1705 133.384 33.3788 132.838 33.7955C132.3 34.2121 131.887 34.803 131.599 35.5682C131.312 36.3333 131.168 37.2348 131.168 38.2727ZM167.307 31.875H162.33C162.239 31.2311 162.053 30.6591 161.773 30.1591C161.492 29.6515 161.133 29.2197 160.693 28.8636C160.254 28.5076 159.746 28.2348 159.17 28.0455C158.602 27.8561 157.985 27.7614 157.318 27.7614C156.114 27.7614 155.064 28.0606 154.17 28.6591C153.277 29.25 152.583 30.1136 152.091 31.25C151.598 32.3788 151.352 33.75 151.352 35.3636C151.352 37.0227 151.598 38.4167 152.091 39.5455C152.591 40.6742 153.288 41.5265 154.182 42.1023C155.076 42.678 156.11 42.9659 157.284 42.9659C157.943 42.9659 158.553 42.8788 159.114 42.7045C159.682 42.5303 160.186 42.2765 160.625 41.9432C161.064 41.6023 161.428 41.1894 161.716 40.7045C162.011 40.2197 162.216 39.6667 162.33 39.0455L167.307 39.0682C167.178 40.1364 166.856 41.1667 166.341 42.1591C165.833 43.1439 165.148 44.0265 164.284 44.8068C163.428 45.5795 162.405 46.1932 161.216 46.6477C160.034 47.0947 158.697 47.3182 157.205 47.3182C155.129 47.3182 153.273 46.8485 151.636 45.9091C150.008 44.9697 148.72 43.6098 147.773 41.8295C146.833 40.0492 146.364 37.8939 146.364 35.3636C146.364 32.8258 146.841 30.6667 147.795 28.8864C148.75 27.1061 150.045 25.75 151.682 24.8182C153.318 23.8788 155.159 23.4091 157.205 23.4091C158.553 23.4091 159.803 23.5985 160.955 23.9773C162.114 24.3561 163.14 24.9091 164.034 25.6364C164.928 26.3561 165.655 27.2386 166.216 28.2841C166.784 29.3295 167.148 30.5265 167.307 31.875ZM175.585 36.9091V47H170.744V23.7273H175.449V32.625H175.653C176.047 31.5947 176.684 30.7879 177.562 30.2045C178.441 29.6136 179.544 29.3182 180.869 29.3182C182.081 29.3182 183.138 29.5833 184.04 30.1136C184.949 30.6364 185.653 31.3902 186.153 32.375C186.661 33.3523 186.911 34.5227 186.903 35.8864V47H182.062V36.75C182.07 35.6742 181.797 34.8371 181.244 34.2386C180.699 33.6402 179.934 33.3409 178.949 33.3409C178.29 33.3409 177.706 33.4811 177.199 33.7614C176.699 34.0417 176.305 34.4508 176.017 34.9886C175.737 35.5189 175.593 36.1591 175.585 36.9091ZM195.69 47.3295C194.577 47.3295 193.584 47.1364 192.713 46.75C191.842 46.3561 191.152 45.7765 190.645 45.0114C190.145 44.2386 189.895 43.2765 189.895 42.125C189.895 41.1553 190.073 40.3409 190.429 39.6818C190.785 39.0227 191.27 38.4924 191.884 38.0909C192.497 37.6894 193.194 37.3864 193.974 37.1818C194.762 36.9773 195.588 36.8333 196.452 36.75C197.467 36.6439 198.285 36.5455 198.906 36.4545C199.527 36.3561 199.978 36.2121 200.259 36.0227C200.539 35.8333 200.679 35.553 200.679 35.1818V35.1136C200.679 34.3939 200.452 33.8371 199.997 33.4432C199.55 33.0492 198.914 32.8523 198.088 32.8523C197.217 32.8523 196.524 33.0455 196.009 33.4318C195.493 33.8106 195.152 34.2879 194.986 34.8636L190.509 34.5C190.736 33.4394 191.183 32.5227 191.849 31.75C192.516 30.9697 193.376 30.3712 194.429 29.9545C195.49 29.5303 196.717 29.3182 198.111 29.3182C199.08 29.3182 200.009 29.4318 200.895 29.6591C201.789 29.8864 202.58 30.2386 203.27 30.7159C203.967 31.1932 204.516 31.8068 204.918 32.5568C205.319 33.2992 205.52 34.1894 205.52 35.2273V47H200.929V44.5795H200.793C200.512 45.125 200.137 45.6061 199.668 46.0227C199.198 46.4318 198.634 46.7538 197.974 46.9886C197.315 47.2159 196.554 47.3295 195.69 47.3295ZM197.077 43.9886C197.789 43.9886 198.418 43.8485 198.963 43.5682C199.509 43.2803 199.937 42.8939 200.247 42.4091C200.558 41.9242 200.713 41.375 200.713 40.7614V38.9091C200.562 39.0076 200.353 39.0985 200.088 39.1818C199.83 39.2576 199.539 39.3295 199.213 39.3977C198.887 39.4583 198.562 39.5152 198.236 39.5682C197.91 39.6136 197.615 39.6553 197.349 39.6932C196.781 39.7765 196.285 39.9091 195.861 40.0909C195.437 40.2727 195.107 40.5189 194.872 40.8295C194.637 41.1326 194.52 41.5114 194.52 41.9659C194.52 42.625 194.759 43.1288 195.236 43.4773C195.721 43.8182 196.334 43.9886 197.077 43.9886ZM218.56 29.5455V33.1818H208.048V29.5455H218.56ZM210.435 25.3636H215.276V41.6364C215.276 42.0833 215.344 42.4318 215.48 42.6818C215.616 42.9242 215.806 43.0947 216.048 43.1932C216.298 43.2917 216.586 43.3409 216.912 43.3409C217.139 43.3409 217.366 43.322 217.594 43.2841C217.821 43.2386 217.995 43.2045 218.116 43.1818L218.878 46.7841C218.635 46.8598 218.295 46.947 217.855 47.0455C217.416 47.1515 216.882 47.2159 216.253 47.2386C215.086 47.2841 214.063 47.1288 213.185 46.7727C212.313 46.4167 211.635 45.8636 211.151 45.1136C210.666 44.3636 210.427 43.4167 210.435 42.2727V25.3636Z" fill="url(#paint1_linear_11227_685)"/>
<defs>
<linearGradient id="paint0_linear_11227_685" x1="0" y1="0" x2="56.4412" y2="65.9482" gradientUnits="userSpaceOnUse">
<stop stop-color="#485BFF"/>
<stop offset="1" stop-color="#FF59F8"/>
</linearGradient>
<linearGradient id="paint1_linear_11227_685" x1="74" y1="14" x2="91.4048" y2="84.6934" gradientUnits="userSpaceOnUse">
<stop stop-color="#485BFF"/>
<stop offset="1" stop-color="#FF59F8"/>
</linearGradient>
</defs>
</svg>
