<svg width="153" height="150" viewBox="0 0 153 150" fill="none" xmlns="http://www.w3.org/2000/svg">
<ellipse opacity="0.1" cx="75.8841" cy="75" rx="75.8841" ry="75" fill="#835AFD"/>
<path d="M7.08252 29.7229V62.7836V65.145C7.08252 67.7534 9.22198 69.868 11.8611 69.868H42.9221L55.685 81.5118C56.5417 82.2934 57.9077 81.5235 57.6635 80.3968L54.8687 67.5065H63.2313C65.8704 67.5065 68.0099 65.392 68.0099 62.7836V29.7229C68.0099 27.1145 65.8704 25 63.2313 25H11.8611C9.22198 25 7.08252 27.1145 7.08252 29.7229Z" fill="url(#paint0_linear_11276_727)"/>
<path d="M153 54.7229V87.7836V90.145C153 92.7534 150.861 94.868 148.221 94.868H117.16L104.398 106.512C103.541 107.293 102.175 106.524 102.419 105.397L105.214 92.5065H96.8513C94.2121 92.5065 92.0726 90.392 92.0726 87.7836V54.7229C92.0726 52.1145 94.2121 50 96.8513 50H148.221C150.861 50 153 52.1145 153 54.7229Z" fill="url(#paint1_linear_11276_727)"/>
<ellipse cx="108.767" cy="71.5" rx="3.54126" ry="3.5" fill="#F8F8F8"/>
<ellipse cx="121.92" cy="71.5" rx="3.54126" ry="3.5" fill="#F8F8F8"/>
<ellipse cx="135.074" cy="71.5" rx="3.54126" ry="3.5" fill="#F8F8F8"/>
<path d="M43.5068 100.41V117.281V118.486C43.5068 119.817 44.6082 120.896 45.9669 120.896H61.9571L68.5274 126.838C68.9684 127.236 69.6717 126.844 69.5459 126.269L68.1072 119.691H72.4122C73.7708 119.691 74.8722 118.612 74.8722 117.281V100.41C74.8722 99.0789 73.7709 97.9999 72.4122 97.9999H45.9669C44.6082 97.9999 43.5068 99.0789 43.5068 100.41Z" fill="#D67EE2"/>
<ellipse cx="23.7769" cy="46.5" rx="3.54126" ry="3.5" fill="#F8F8F8"/>
<ellipse cx="36.9304" cy="46.5" rx="3.54126" ry="3.5" fill="#F8F8F8"/>
<ellipse cx="50.0835" cy="46.5" rx="3.54126" ry="3.5" fill="#F8F8F8"/>
<ellipse opacity="0.7" cx="51.6165" cy="109.333" rx="2.0389" ry="2.01515" fill="#F8F8F8"/>
<ellipse opacity="0.7" cx="59.1895" cy="109.333" rx="2.0389" ry="2.01515" fill="#F8F8F8"/>
<ellipse opacity="0.7" cx="66.7625" cy="109.333" rx="2.0389" ry="2.01515" fill="#F8F8F8"/>
<defs>
<linearGradient id="paint0_linear_11276_727" x1="37.5462" y1="25" x2="37.5462" y2="81.8297" gradientUnits="userSpaceOnUse">
<stop stop-color="#9A78FF"/>
<stop offset="1" stop-color="#835AFD"/>
</linearGradient>
<linearGradient id="paint1_linear_11276_727" x1="122.536" y1="50" x2="122.536" y2="106.83" gradientUnits="userSpaceOnUse">
<stop stop-color="#EF7EFF"/>
<stop offset="1" stop-color="#E554FA"/>
</linearGradient>
</defs>
</svg>
